<svg width="29" height="30" viewBox="0 0 29 30" fill="none" xmlns="http://www.w3.org/2000/svg">
<g clip-path="url(#clip0_2598_73)">
<path d="M24.1666 16.7181V14.7848C24.1666 14.272 23.9629 13.7803 23.6003 13.4177C23.2377 13.0552 22.746 12.8515 22.2332 12.8515H2.89989C2.38713 12.8515 1.89538 13.0552 1.53281 13.4177C1.17024 13.7803 0.966553 14.272 0.966553 14.7848V26.3848C0.966553 26.8976 1.17024 27.3893 1.53281 27.7519C1.89538 28.1144 2.38713 28.3181 2.89989 28.3181H22.2332C22.746 28.3181 23.2377 28.1144 23.6003 27.7519C23.9629 27.3893 24.1666 26.8976 24.1666 26.3848V24.4515M24.1666 16.7181H16.4332C15.4077 16.7181 14.4242 17.1255 13.6991 17.8507C12.9739 18.5758 12.5666 19.5593 12.5666 20.5848C12.5666 21.6103 12.9739 22.5938 13.6991 23.3189C14.4242 24.0441 15.4077 24.4515 16.4332 24.4515H24.1666M24.1666 16.7181C25.1921 16.7181 26.1756 17.1255 26.9007 17.8507C27.6258 18.5758 28.0332 19.5593 28.0332 20.5848C28.0332 21.6103 27.6258 22.5938 26.9007 23.3189C26.1756 24.0441 25.1921 24.4515 24.1666 24.4515M6.76655 12.8515V7.05147C6.76655 5.51321 7.37762 4.03796 8.46533 2.95025C9.55304 1.86253 11.0283 1.25146 12.5666 1.25146C14.1048 1.25146 15.5801 1.86253 16.6678 2.95025C17.7555 4.03796 18.3666 5.51321 18.3666 7.05147V12.8515M23.1999 20.5848H25.1332M19.3332 20.5848H21.2666M15.4666 20.5848H17.3999" stroke="black"/>
</g>
<defs>
<clipPath id="clip0_2598_73">
<rect width="29" height="29" fill="white" transform="translate(0 0.284668)"/>
</clipPath>
</defs>
</svg>
