<svg width="18" height="22" viewBox="0 0 18 22" fill="none" xmlns="http://www.w3.org/2000/svg">
<path fill-rule="evenodd" clip-rule="evenodd" d="M9.00006 0.0351562C7.74028 0.0351563 6.5321 0.535601 5.6413 1.4264C4.7505 2.3172 4.25006 3.52538 4.25006 4.78516C4.25006 6.04493 4.7505 7.25312 5.6413 8.14391C6.5321 9.03471 7.74028 9.53516 9.00006 9.53516C10.2598 9.53516 11.468 9.03471 12.3588 8.14391C13.2496 7.25312 13.7501 6.04493 13.7501 4.78516C13.7501 3.52538 13.2496 2.3172 12.3588 1.4264C11.468 0.535601 10.2598 0.0351563 9.00006 0.0351562ZM5.75006 4.78516C5.75006 3.9232 6.09247 3.09655 6.70196 2.48706C7.31145 1.87757 8.1381 1.53516 9.00006 1.53516C9.86201 1.53516 10.6887 1.87757 11.2982 2.48706C11.9076 3.09655 12.2501 3.9232 12.2501 4.78516C12.2501 5.64711 11.9076 6.47376 11.2982 7.08325C10.6887 7.69275 9.86201 8.03516 9.00006 8.03516C8.1381 8.03516 7.31145 7.69275 6.70196 7.08325C6.09247 6.47376 5.75006 5.64711 5.75006 4.78516ZM9.00006 11.0352C6.68706 11.0352 4.55506 11.5612 2.97606 12.4492C1.42006 13.3252 0.250056 14.6512 0.250056 16.2852V16.3872C0.249056 17.5492 0.248056 19.0072 1.52706 20.0492C2.15606 20.5612 3.03706 20.9262 4.22706 21.1662C5.41906 21.4082 6.97406 21.5352 9.00006 21.5352C11.0261 21.5352 12.5801 21.4082 13.7741 21.1662C14.9641 20.9262 15.8441 20.5612 16.4741 20.0492C17.7531 19.0072 17.7511 17.5492 17.7501 16.3872V16.2852C17.7501 14.6512 16.5801 13.3252 15.0251 12.4492C13.4451 11.5612 11.3141 11.0352 9.00006 11.0352ZM1.75006 16.2852C1.75006 15.4342 2.37206 14.5102 3.71106 13.7572C5.02706 13.0172 6.89506 12.5352 9.00106 12.5352C11.1051 12.5352 12.9731 13.0172 14.2891 13.7572C15.6291 14.5102 16.2501 15.4342 16.2501 16.2852C16.2501 17.5932 16.2101 18.3292 15.5261 18.8852C15.1561 19.1872 14.5361 19.4822 13.4761 19.6962C12.4191 19.9102 10.9741 20.0352 9.00006 20.0352C7.02606 20.0352 5.58006 19.9102 4.52406 19.6962C3.46406 19.4822 2.84406 19.1872 2.47406 18.8862C1.79006 18.3292 1.75006 17.5932 1.75006 16.2852Z" fill="black"/>
</svg>
